# xmcd
#
# Track frame offsets:
#	182
#	15622
#	28270
#	40515
#	54212
#	65065
#	80392
#	96165
#	110542
#	120040
#	131255
#	145092
#	162035
#	174847
#	184412
#	201025
#	221560
#	234890
#	253292
#	269380
#
# Disc length: 3796 seconds
# Revision: 1
# Processed by: cddbd v1.5.2PL0 Copyright (c) Steve Scherf et al.
# Submitted via: dBpowerAMP V12.0
#
DISCID=070ed214
DTITLE=Bobby Patterson - I Get my Groove From You
DYEAR=1995
DGENRE=Soul
TTITLE0=I Get my Groove From You
TTITLE1=Make Sure You Can Handle it
TTITLE2=If You Took a Survey
TTITLE3=Everything Good to You (Don't Have to be Good For You)
TTITLE4=How do You Spell Love
TTITLE5=Recipe For Peace
TTITLE6=She Don't Have to See You (to See Through You)
TTITLE7=Right on Jody
TTITLE8=Quiet, do Not Disturb
TTITLE9=I Just Love You Because I Wanted to
TTITLE10=One Ounce of Prevention
TTITLE11=This Whole Funky World is a Ghetto
TTITLE12=What Goes Around Comes Around
TTITLE13=It Takes Two to do Wrong
TTITLE14=Take Time to Know The Truth
TTITLE15=I'm in The Wrong
TTITLE16=If Love Can't do it (it Can't be Done)
TTITLE17=I Got a Suspicion
TTITLE18=Right Place, Wrong Time
TTITLE19=She Don't Have to See You (to See Through You) (Alternate Mix)
EXTD=
EXTT0=
EXTT1=
EXTT2=
EXTT3=
EXTT4=
EXTT5=
EXTT6=
EXTT7=
EXTT8=
EXTT9=
EXTT10=
EXTT11=
EXTT12=
EXTT13=
EXTT14=
EXTT15=
EXTT16=
EXTT17=
EXTT18=
EXTT19=
PLAYORDER=
